<svg width="176" height="124" viewBox="0 0 176 124" fill="none" xmlns="http://www.w3.org/2000/svg">
<path d="M27.2711 64.9361C26.5271 64.9409 25.8177 64.7295 25.143 64.3018C24.4684 63.8981 23.9603 63.2654 23.6187 62.4035C23.4967 62.0923 23.4106 61.7569 23.3603 61.3972C23.334 61.0374 23.3197 60.6894 23.3176 60.3534L23.3146 59.8855C23.3135 59.7175 23.3245 59.5614 23.3475 59.4172C23.3946 59.2729 23.4902 59.2003 23.6341 59.1994C23.6821 59.1991 23.7063 59.2229 23.7066 59.2709C23.7075 59.4149 23.6965 59.559 23.6734 59.7031C23.6743 59.8471 23.6752 59.9911 23.6762 60.1351C23.6834 61.2631 23.965 62.1253 24.5208 62.7218C25.1005 63.294 25.8103 63.5775 26.6503 63.5721C27.4903 63.5667 28.3047 63.3214 29.0936 62.8364C29.8824 62.3273 30.6104 61.6986 31.2776 60.9503C31.6589 60.5398 32.087 59.9251 32.5617 59.106C33.0603 58.2628 33.5703 57.3235 34.0917 56.2881C34.6369 55.2286 35.1819 54.1451 35.7268 53.0375C36.2715 51.906 36.7926 50.8226 37.2899 49.7874C37.7871 48.7282 38.2372 47.8013 38.6401 47.0067C39.0193 46.2602 39.5315 45.6689 40.1767 45.2328C40.8219 44.7966 41.372 44.4931 41.8269 44.3221C41.6589 44.3232 41.299 44.3375 40.7472 44.3651C40.2193 44.3925 39.6555 44.4201 39.0556 44.4479C38.4558 44.4758 37.976 44.5029 37.6161 44.5292C36.7045 44.5831 35.7812 44.697 34.8463 44.871C33.9114 45.045 33.0849 45.2783 32.3667 45.571C31.6486 45.8636 31.135 46.2389 30.8259 46.6969C30.6119 47.0103 30.5063 47.371 30.5089 47.779C30.5141 48.5949 30.8779 49.1806 31.6002 49.536C31.6485 49.5837 31.6727 49.6075 31.6727 49.6075C31.6731 49.6795 31.6136 49.7519 31.4941 49.8247C31.3744 49.8734 31.2544 49.8862 31.1343 49.863C30.9415 49.7442 30.7003 49.5538 30.4106 49.2916C30.1448 49.0053 29.8908 48.7069 29.6488 48.3965C29.4308 48.0859 29.2851 47.8228 29.2118 47.6073C29.0894 47.2481 29.0276 46.9605 29.0262 46.7445C29.0225 46.1685 29.2355 45.6991 29.6652 45.3363C30.0947 44.9496 30.6568 44.6579 31.3516 44.4615C32.0462 44.241 32.7892 44.0922 33.5808 44.0151C34.3721 43.914 35.1397 43.8491 35.8835 43.8203C36.6274 43.7915 37.2633 43.7755 37.7913 43.7721C39.0153 43.7642 40.1072 43.7572 41.0672 43.751C42.051 43.7207 42.9509 43.7029 43.7669 43.6976C44.6069 43.6922 45.411 43.6991 46.1791 43.7181C46.9712 43.7371 47.7995 43.7677 48.6637 43.8102C49.2879 43.8302 49.7087 43.9475 49.926 44.1621C50.1674 44.3765 50.2891 44.6397 50.2911 44.9517C50.2937 45.3597 50.1646 45.8046 49.9037 46.2863C49.6428 46.7679 49.4056 47.2135 49.1923 47.6229C49.0975 47.8155 48.9424 47.9605 48.7271 48.0579C48.5115 48.1312 48.4271 48.0598 48.4737 47.8435C48.5203 47.6272 48.5668 47.3989 48.6133 47.1586C48.6596 46.8943 48.682 46.6421 48.6804 46.4021C48.6776 45.9701 48.5912 45.5867 48.421 45.2518C48.2507 44.8929 47.9611 44.6427 47.5522 44.5013C47.3116 44.4069 47.0232 44.3487 46.687 44.3269C46.3507 44.2811 45.9906 44.2594 45.6066 44.2618C44.8866 44.2665 44.1671 44.3431 43.448 44.4917C42.729 44.6403 42.1664 44.872 41.7605 45.1866C41.2589 45.5738 40.747 46.2011 40.2245 47.0685C39.7261 47.9357 39.252 48.8628 38.8024 49.8497C38.3527 50.8366 37.9503 51.7032 37.5951 52.4495C37.5714 52.4977 37.5598 52.5697 37.5604 52.6657C37.5612 52.7857 37.6696 52.845 37.8856 52.8436C38.2216 52.8415 38.6896 52.8385 39.2896 52.8346C39.9135 52.8306 40.5616 52.8384 41.2338 52.8581C41.9057 52.8538 42.4817 52.8501 42.9617 52.847C43.4897 52.8436 43.9099 52.8769 44.2224 52.9469C44.5347 52.9929 44.6917 53.1479 44.6934 53.4119C44.694 53.5079 44.6352 53.7003 44.5171 53.989C44.3516 54.3741 44.1617 54.7113 43.9476 55.0007C43.7573 55.266 43.6031 55.5429 43.4849 55.8317C43.4615 55.9279 43.3541 56.0126 43.1625 56.0858C42.971 56.159 42.8989 56.1475 42.9463 56.0512C43.0409 55.8346 43.1352 55.57 43.2292 55.2573C43.3471 54.9206 43.4052 54.6322 43.4037 54.3922C43.4012 54.0082 43.232 53.8173 42.896 53.8195L37.2801 53.8556C37.0641 53.8569 36.8967 53.954 36.7779 54.1468C36.0909 55.5432 35.3445 57.0361 34.5387 58.6253C33.7569 60.2143 32.8416 61.5762 31.7929 62.711C31.1971 63.3629 30.5045 63.8953 29.7151 64.3084C28.9258 64.7215 28.1111 64.9307 27.2711 64.9361ZM44.5823 63.9608C44.4863 63.9614 44.4857 63.8654 44.5805 63.6728C44.6991 63.4561 44.8055 63.2154 44.8998 62.9508C45.0181 62.686 45.1363 62.3972 45.2543 62.0845C45.4906 61.5069 45.7504 60.8573 46.0338 60.1354C46.3171 59.4136 46.5886 58.7158 46.8483 58.0421C47.1078 57.3445 47.3321 56.755 47.521 56.2738C47.7337 55.7684 47.8756 55.4435 47.9467 55.299C47.613 55.6612 47.208 56.1198 46.7315 56.6749C46.2789 57.2058 45.8503 57.7245 45.4455 58.2312C45.0408 58.7378 44.7313 59.1358 44.5172 59.4252C44.4458 59.5216 44.3861 59.57 44.3381 59.5703C44.2901 59.5706 44.2657 59.5108 44.2649 59.3908C44.2637 59.1988 44.3225 59.0184 44.4415 58.8496C44.8937 58.2707 45.3936 57.6195 45.9409 56.8959C46.5123 56.1723 47.024 55.509 47.4762 54.906C47.9282 54.2791 48.2135 53.8693 48.3323 53.6765C48.596 53.6268 48.9795 53.5523 49.4829 53.4531C50.0102 53.3537 50.3694 53.2194 50.5603 53.0502C50.6318 52.9777 50.7036 52.9413 50.7756 52.9408C50.8236 52.9405 50.8479 52.9883 50.8485 53.0843C50.873 53.1562 50.8495 53.2403 50.7782 53.3368C50.6351 53.4817 50.4211 53.7951 50.1362 54.2769C49.8753 54.7586 49.5788 55.3125 49.2468 55.9387C48.9149 56.5648 48.5947 57.1669 48.2864 57.7449C48.5241 57.3834 48.8334 56.9614 49.2143 56.4789C49.6191 55.9723 50.06 55.4894 50.537 55.0304C51.0139 54.5473 51.4914 54.1482 51.9694 53.8331C52.4714 53.5179 52.9383 53.3589 53.3703 53.3561C53.6823 53.3541 53.9468 53.4244 54.1637 53.567C54.3805 53.6856 54.5499 53.9125 54.6721 54.2478C54.7452 54.4153 54.7824 54.6071 54.7838 54.8231C54.7864 55.2311 54.681 55.6277 54.4674 56.0131C54.2778 56.3743 54.1355 56.6513 54.0408 56.8439C54.0172 56.916 53.9337 56.9886 53.7902 57.0615C53.6465 57.1104 53.5863 57.0868 53.6097 56.9907C53.6329 56.8705 53.6442 56.7504 53.6434 56.6304C53.6666 56.5103 53.6778 56.3782 53.6768 56.2342C53.6742 55.8262 53.5878 55.4548 53.4177 55.1199C53.2715 54.7848 52.9944 54.6186 52.5864 54.6212C52.2025 54.6237 51.736 54.8667 51.1871 55.3502C50.6382 55.8337 50.0898 56.3893 49.5418 57.0168C48.851 57.8373 48.3041 58.6208 47.9009 59.3674C47.4975 60.09 47.1661 60.8002 46.9065 61.4978C46.765 61.8828 46.6235 62.2677 46.4819 62.6526C46.3403 63.0135 46.2341 63.3022 46.1635 63.5187C45.8517 63.5447 45.5401 63.6187 45.2289 63.7407C44.9178 63.8867 44.7023 63.9601 44.5823 63.9608ZM56.2253 63.67C55.2413 63.6763 54.5561 63.4887 54.1696 63.1072C53.7832 62.7257 53.5882 62.2589 53.5846 61.7069C53.5801 61.0109 53.7553 60.2658 54.1102 59.4715C54.4891 58.677 54.8448 58.0027 55.1773 57.4486C55.5576 56.8701 56.0697 56.2668 56.7137 55.6387C57.3576 55.0105 58.0622 54.478 58.8274 54.0411C59.5926 53.6041 60.3352 53.3833 61.0552 53.3787C61.6792 53.3747 62.1122 53.5279 62.3542 53.8384C62.5961 54.1248 62.7183 54.4721 62.7209 54.88C62.7257 55.624 62.5016 56.2375 62.0487 56.7204C61.6198 57.2032 61.0824 57.6026 60.4364 57.9188C59.7903 58.211 59.1678 58.455 58.5691 58.6508C58.2097 58.7491 57.7903 58.8478 57.3109 58.9469C56.8316 59.046 56.3759 59.0969 55.9439 59.0997C55.7787 59.5328 55.6494 59.9536 55.556 60.3622C55.4626 60.7708 55.417 61.1431 55.4192 61.4791C55.4218 61.8871 55.52 62.2225 55.7137 62.4852C55.9313 62.7479 56.2802 62.8776 56.7602 62.8745C56.9522 62.8733 57.18 62.8478 57.4437 62.7981C57.7074 62.7484 57.9949 62.6746 58.3063 62.5766C59.0247 62.332 59.7303 61.9434 60.4228 61.411C61.1154 60.8785 61.7478 60.3104 62.3199 59.7067C62.9159 59.0789 63.3686 58.56 63.678 58.15C63.7504 58.2215 63.787 58.3053 63.7876 58.4013C63.7883 58.5213 63.7056 58.7138 63.5393 58.9789C63.0636 59.6539 62.4441 60.3539 61.6807 61.0789C60.9174 61.8038 60.0693 62.4212 59.1366 62.9313C58.2037 63.4173 57.2333 63.6635 56.2253 63.67ZM56.2273 58.3779C56.5394 58.3999 56.8874 58.3976 57.2712 58.3711C57.6789 58.3205 58.0744 58.234 58.4576 58.1115C59.4397 57.8172 60.1448 57.3567 60.5728 56.7299C61.0246 56.079 61.2489 55.5015 61.2456 54.9975C61.2438 54.7095 61.1822 54.4699 61.061 54.2787C60.9398 54.0875 60.7472 53.9927 60.4832 53.9944C59.7872 53.9989 59.1649 54.2669 58.6163 54.7984C58.0676 55.306 57.5913 55.897 57.1877 56.5716C56.784 57.2463 56.4639 57.8483 56.2273 58.3779ZM68.0327 63.4141C67.7927 63.4156 67.5884 63.3689 67.4198 63.274C67.2512 63.1791 67.166 62.9996 67.1643 62.7356C67.1622 62.3997 67.2437 62.0151 67.4089 61.582C67.5742 61.149 67.7635 60.7278 67.9768 60.3184C68.19 59.885 68.3798 59.5358 68.5461 59.2707C67.7118 60.1641 66.8412 61.0097 65.9344 61.8075C65.4808 62.1945 64.9792 62.5577 64.4293 62.8972C63.8795 63.2368 63.2926 63.4085 62.6686 63.4126C62.4286 63.4141 62.2601 63.3432 62.1632 63.1998C62.0661 63.0324 62.0169 62.8407 62.0155 62.6247C62.0148 62.5047 62.0262 62.4207 62.0499 62.3725C62.1639 61.4358 62.4576 60.4619 62.9311 59.4508C63.4047 58.4397 63.9865 57.488 64.6768 56.5955C65.3671 55.7031 66.0705 54.9785 66.7869 54.4219C67.3363 54.0104 67.8626 53.755 68.366 53.6557C68.8692 53.5325 69.4208 53.4689 70.0208 53.4651L71.2088 53.4575C71.5886 52.807 71.98 52.0845 72.3829 51.2899C72.8096 50.4711 73.2244 49.6644 73.6273 48.8698C74.0542 48.0751 74.4458 47.3765 74.8019 46.7742C75.7751 45.0879 76.8464 43.737 78.0159 42.7215C79.2094 41.7058 80.5381 41.1932 82.0021 41.1838C82.3141 41.1818 82.6027 41.276 82.868 41.4663C83.133 41.6326 83.2547 41.8958 83.233 42.2559L83.1694 43.5524C83.1695 43.5764 83.1458 43.6125 83.0981 43.6608C83.0502 43.6851 83.0143 43.6974 82.9903 43.6975C82.9663 43.6977 82.9301 43.6739 82.8818 43.6262C82.8071 43.1947 82.589 42.8721 82.2276 42.6584C81.8661 42.4207 81.4213 42.3036 80.8933 42.307C80.7253 42.3081 80.5334 42.3213 80.3176 42.3467C80.1257 42.3719 79.934 42.4211 79.7425 42.4944C79.0721 42.7387 78.4392 43.2348 77.844 43.9826C77.2487 44.7064 76.6068 45.6706 75.9186 46.875C75.6815 47.3326 75.3734 47.9346 74.9942 48.681C74.6148 49.4035 74.2118 50.1861 73.7852 51.0288C73.3826 51.8714 72.9919 52.69 72.613 53.4844C72.2581 54.2787 71.9504 54.9527 71.69 55.5064C71.5718 55.7952 71.3707 56.2405 71.0865 56.8423C70.8023 57.4202 70.4943 58.0581 70.1628 58.7563C69.8552 59.4303 69.5832 60.056 69.3469 60.6336C69.1346 61.2109 69.0292 61.6196 69.0308 61.8596C69.0329 62.1956 69.178 62.3627 69.466 62.3608C69.754 62.359 70.1369 62.1885 70.6147 61.8494C71.0924 61.4864 71.5816 61.0512 72.0824 60.544C72.607 60.0126 73.0717 59.5056 73.4766 59.023C73.9055 58.5402 74.2032 58.1783 74.3696 57.9372C74.4421 58.0088 74.4787 58.0925 74.4793 58.1885C74.4803 58.3565 74.4094 58.525 74.2665 58.6939C74.1476 58.8627 74.0405 59.0074 73.9453 59.128C73.517 59.7067 72.981 60.3342 72.3374 61.0104C71.7175 61.6624 71.0372 62.2307 70.2963 62.7155C69.5552 63.1763 68.8007 63.4091 68.0327 63.4141ZM64.1367 62.1791C64.4247 62.1772 64.8194 61.9707 65.3207 61.5595C65.846 61.1241 66.4066 60.5925 67.0025 59.9646C67.5984 59.3128 68.158 58.6372 68.6815 57.9378C69.2049 57.2144 69.6327 56.5637 69.965 55.9855C70.3211 55.3832 70.4982 54.9261 70.4962 54.6141C70.4945 54.3501 70.4094 54.1706 70.2407 54.0757C70.0961 53.9806 69.9038 53.9339 69.6638 53.9354C69.2798 53.9379 68.8608 54.0846 68.4066 54.3755C67.9763 54.6423 67.63 54.9085 67.3677 55.1742C67.0814 55.44 66.7362 55.8623 66.3319 56.4409C65.9514 56.9953 65.5714 57.6098 65.1917 58.2842C64.812 58.9587 64.4922 59.6088 64.2322 60.2344C63.9722 60.8601 63.8435 61.365 63.8459 61.749C63.8478 62.0369 63.9447 62.1803 64.1367 62.1791ZM79.0478 46.7469C78.9045 46.8438 78.7729 46.9167 78.6532 46.9655C78.5576 47.0141 78.5097 47.0384 78.5097 47.0384L78.5799 46.7499C78.6034 46.6778 78.615 46.6177 78.6147 46.5697C78.6384 46.5216 78.7219 46.449 78.8653 46.3521C79.2711 46.0135 79.6166 45.6152 79.9016 45.1574C80.2107 44.6994 80.4116 44.2181 80.5044 43.7135C80.5504 43.4012 80.4886 43.1256 80.3191 42.8867C80.1495 42.6478 79.9086 42.5053 79.5963 42.4593L79.7377 42.0624C79.8574 42.0136 80.025 41.9405 80.2403 41.8432C80.4556 41.7218 80.611 41.6248 80.7065 41.5522C80.802 41.4795 80.8975 41.3949 80.9929 41.2983C81.0881 41.1777 81.1718 41.1292 81.2439 41.1527C81.7484 41.2215 82.0024 41.5318 82.0059 42.0838C82.0066 42.1798 81.9952 42.2759 81.9718 42.372C81.9722 42.444 81.9609 42.5401 81.9376 42.6603C81.7512 43.5255 81.3842 44.3079 80.8367 45.0074C80.313 45.6828 79.7167 46.2626 79.0478 46.7469ZM81.9284 63.7928C81.4964 63.7955 81.04 63.7385 80.5592 63.6216C80.0785 63.5046 79.6452 63.3154 79.2595 63.0539C78.8977 62.7682 78.6552 62.3858 78.5322 61.9066C78.5077 61.8347 78.495 61.7268 78.4941 61.5828C78.4919 61.2468 78.5615 60.8743 78.7029 60.4654C78.8683 60.0564 79.0704 59.7671 79.3093 59.5975C79.405 59.5489 79.477 59.5484 79.5253 59.5961C79.5976 59.6437 79.6099 59.6916 79.5623 59.7399C79.5387 59.812 79.5033 59.9083 79.4561 60.0286C79.4087 60.1249 79.3734 60.2331 79.3502 60.3533C79.2822 60.9777 79.4177 61.5289 79.7568 62.0067C79.9021 62.1978 80.0712 62.3767 80.2643 62.5434C80.4814 62.71 80.6863 62.8527 80.8791 62.9715C81.0477 63.0664 81.2521 63.1371 81.4924 63.1836C81.7326 63.206 81.9726 63.2165 82.2126 63.2149C82.5966 63.2125 82.9683 63.1621 83.3277 63.0638C83.6871 62.9654 83.9501 62.8077 84.1167 62.5907C84.4262 62.2047 84.5794 61.7717 84.5763 61.2917C84.574 60.9317 84.4755 60.5483 84.2809 60.1416C84.0863 59.7348 83.7835 59.3047 83.3726 58.8514C83.1068 58.5651 82.8528 58.2547 82.6106 57.9203C82.3685 57.5858 82.2102 57.2268 82.1357 56.8433C82.1112 56.7714 82.0868 56.6996 82.0623 56.6278C82.0618 56.5558 82.0614 56.4838 82.0609 56.4118C81.7518 56.8698 81.4306 57.3038 81.0973 57.714C80.7877 58.1 80.5139 58.4377 80.2758 58.7273C80.1807 58.8719 80.0971 58.9444 80.0252 58.9449C79.9772 58.9452 79.9528 58.8974 79.9522 58.8014C79.9508 58.5854 80.0454 58.3568 80.2358 58.1155C80.4264 57.8983 80.6407 57.6329 80.8787 57.3194C81.1166 56.9818 81.3069 56.7166 81.4496 56.5237C81.8538 55.9211 82.1507 55.4512 82.3406 55.1139C82.5543 54.7526 82.7802 54.4271 83.0183 54.1376C83.2803 53.8239 83.6027 53.5698 83.9854 53.3753C84.3922 53.1807 84.8116 53.082 85.2436 53.0792C85.7475 53.076 86.2041 53.1571 86.6131 53.3224C87.0461 53.4637 87.2765 53.8462 87.3045 54.47C87.3064 54.758 87.2483 55.0584 87.1303 55.3712C87.0362 55.6598 86.93 55.9365 86.8117 56.2012C86.7406 56.3457 86.6333 56.4544 86.4897 56.5273C86.3701 56.5761 86.3099 56.5524 86.3093 56.4565C86.3087 56.3605 86.32 56.2524 86.3432 56.1322C86.3664 56.0121 86.3777 55.904 86.3771 55.808C86.3745 55.4 86.3002 55.0405 86.1542 54.7294C86.032 54.3942 85.8505 54.1554 85.6096 54.0129C85.3685 53.8464 85.116 53.7641 84.852 53.7658C84.468 53.7682 84.097 53.9266 83.739 54.2409C83.3808 54.5312 83.2033 54.9164 83.2064 55.3964C83.2067 55.4444 83.2071 55.5044 83.2076 55.5764C83.208 55.6484 83.2204 55.7083 83.2447 55.7561C83.3432 56.1395 83.634 56.5697 84.117 57.0466C84.6001 57.5235 84.9748 57.9411 85.2411 58.2994C85.7011 58.9204 85.9332 59.5549 85.9374 60.2029C85.9415 60.8509 85.7534 61.4521 85.3729 62.0066C85.0163 62.5369 84.5271 62.96 83.9051 63.276C83.3072 63.6159 82.6483 63.7881 81.9284 63.7928Z" fill="black"/>
<path d="M86.7784 72.9068C86.175 73.2362 85.5381 73.4064 84.8676 73.4172C83.9366 73.4232 83.1827 73.1253 82.6059 72.5235C82.0619 71.9541 81.7871 71.2462 81.7817 70.3998C81.7772 69.6967 81.975 69.0704 82.3751 68.521C82.9366 67.7556 83.7544 67.3695 84.8286 67.3626C85.5383 67.358 86.1643 67.52 86.7068 67.8486C86.706 67.7249 86.7119 67.6305 86.7245 67.5653C86.7563 67.4544 86.8536 67.3984 87.0164 67.3974L87.0578 69.2819L86.7453 69.2839C86.6854 69.076 86.6191 68.8876 86.5464 68.7188C86.2162 67.9982 85.6833 67.6403 84.9476 67.6451C84.7198 67.6465 84.5084 67.6837 84.3136 67.7566C83.5213 68.0742 83.1298 68.9458 83.139 70.3716C83.1573 72.2074 83.7524 73.1281 84.9243 73.1336C85.035 73.1329 85.1456 73.1257 85.2562 73.1119C86.0237 72.9963 86.541 72.4461 86.8081 71.4613L87.1011 71.4594L87.1133 73.3539C87.0417 73.3544 86.983 73.3482 86.9374 73.3355C86.8265 73.3037 86.7735 73.1608 86.7784 72.9068ZM90.3094 67.6887L89.5867 67.6934L89.6042 70.4179L90.2487 70.4138C90.2878 70.4135 90.3269 70.4133 90.3659 70.413C91.0622 70.3565 91.4075 69.8952 91.402 69.0294C91.4014 68.9382 91.3976 68.8504 91.3905 68.7658C91.3078 68.0436 90.9474 67.6846 90.3094 67.6887ZM90.5992 73.2827L87.6403 73.3017L87.6386 73.038L88.4198 73.033L88.3856 67.7011L87.6043 67.7061L87.6026 67.4424L90.7471 67.4222C91.1833 67.4194 91.5549 67.4919 91.8618 67.6397C92.4104 67.9031 92.6867 68.344 92.6906 68.9625C92.6924 69.2294 92.6418 69.4739 92.5391 69.6959C92.2309 70.362 91.5266 70.6985 90.4264 70.7056L89.6061 70.7109L89.621 73.0253L90.3339 73.0207C90.4707 73.0328 90.5591 73.1202 90.5992 73.2827ZM95.8921 73.2486L93.1285 73.2664L93.1268 73.0027L93.908 72.9977L93.8737 67.6658L93.0925 67.6708L93.0908 67.4072L95.8544 67.3894L95.8561 67.6531L95.0749 67.6581L95.0905 70.0897L97.7369 70.0727L97.7213 67.6411L96.9401 67.6461L96.9384 67.3824L99.6922 67.3647L99.6939 67.6284L98.9225 67.6333L98.9567 72.9653L99.4743 72.9619C99.5916 72.9742 99.6768 73.0616 99.7299 73.224L96.976 73.2417L96.9744 72.978L97.7556 72.973L97.7388 70.3656L95.0924 70.3826L95.1092 72.99L95.6267 72.9867C95.7635 72.9988 95.852 73.0861 95.8921 73.2486Z" fill="black"/>
<path d="M7.19432 28.851L10.3596 29.4226C12.1912 27.2397 14.8812 24.1549 18.3327 20.6138C22.0807 16.768 24.0129 14.8021 26.8816 12.7139C31.4691 9.37425 35.5744 7.72336 38.1275 6.71801C40.7014 5.70406 46.2202 3.00479 53.666 3.00479C56.2555 3.00479 62.7301 2.57614 66.4712 3.14767C70.2123 3.7192 75.1033 4.29073 79.2763 5.86072C83.4493 7.4307 89.492 9.85971 92.5133 12.1441C95.5347 14.4285 98.9879 15.8573 102.153 19.8546C105.318 23.8536 108.34 26.138 110.066 29.4226C111.791 32.7072 116.252 42.5609 116.252 42.5609C116.252 42.5609 117.548 45.4168 118.41 50.1285C119.274 54.8402 119.705 62.8382 119.274 65.837C118.842 68.8358 118.842 71.2631 117.978 75.1192C117.114 78.9753 114.957 85.6856 113.087 88.9702C111.217 92.2548 105.031 100.823 102.441 103.393C99.8516 105.963 93.9529 111.103 90.4997 112.961C87.0465 114.818 79.566 118.244 76.5446 119.101C73.5233 119.959 63.8834 121.529 61.5819 121.386C59.2803 121.243 48.6328 120.814 46.4752 120.243C44.3176 119.671 33.6701 115.817 30.9366 113.959C28.2032 112.103 21.2968 108.104 19.2831 105.82C17.2695 103.536 9.21144 93.8248 9.21144 93.8248L2.88085 81.6866H0L4.60312 91.6833C4.60312 91.6833 11.6535 101.537 13.0913 102.964C14.5309 104.393 20.5718 110.96 23.5932 113.104C26.6145 115.245 36.5422 119.959 36.5422 119.959L49.2034 123.386C54.2852 123.987 58.5814 124.054 61.7779 123.971C65.7306 123.87 69.2237 123.763 73.7054 122.725C77.2054 121.916 79.6249 120.929 83.0122 119.53C89.5718 116.82 93.0336 115.304 96.9673 112.532C101.426 109.39 109.053 100.108 109.053 100.108C109.053 100.108 113.512 94.1105 115.239 90.3973C116.965 86.6841 119.412 80.9722 120.418 76.6892C121.426 72.4044 122 60.9807 122 58.4105C122 55.8404 121.136 48.4139 120.13 44.9882C119.123 41.5607 115.957 34.136 113.8 30.2799C111.642 26.4238 103.298 16.8575 100.851 15C98.4051 13.1443 91.3547 8.00223 87.7576 6.43225C85.4699 5.43379 84.1136 4.54895 82.0219 3.70887C80.6933 3.17349 79.2919 2.7655 77.398 2.29209C70.4482 0.553401 64.4402 0.150576 64.4402 0.150576C56.7394 -0.364146 50.6066 0.558566 47.4725 1.14903C43.6637 1.86689 38.0529 2.54859 31.9339 6.14648C28.0488 8.43088 21.4321 13.2872 21.4321 13.2872L13.9516 20.1421L9.06055 26.1397L7.19086 28.8528L7.19432 28.851Z" fill="black"/>
<path d="M20.4252 36.871L22.8122 37.3042C24.1933 35.6495 26.2219 33.3109 28.8247 30.6266C31.6511 27.7112 33.1081 26.2209 35.2714 24.638C38.7308 22.1063 41.8266 20.8548 43.7519 20.0927C45.6928 19.324 49.8546 17.2778 55.4695 17.2778C57.4222 17.2778 62.3046 16.9529 65.1258 17.3861C67.947 17.8194 71.6353 18.2526 74.7821 19.4428C77.929 20.633 82.4858 22.4743 84.7642 24.206C87.0425 25.9377 89.6466 27.0209 92.0335 30.0511C94.4205 33.0826 96.6989 34.8143 98.0002 37.3042C99.3016 39.7941 102.666 47.2639 102.666 47.2639C102.666 47.2639 103.643 49.4289 104.293 53.0006C104.944 56.5724 105.27 62.6354 104.944 64.9087C104.618 67.182 104.618 69.022 103.967 71.9452C103.316 74.8684 101.689 79.9552 100.279 82.4452C98.8687 84.9351 94.2034 91.43 92.2506 93.3784C90.2979 95.3267 85.8497 99.2234 83.2457 100.632C80.6416 102.04 75.0006 104.637 72.7222 105.286C70.4438 105.936 63.1744 107.126 61.4388 107.018C59.7032 106.91 51.6739 106.585 50.0469 106.152C48.4198 105.718 40.3905 102.797 38.3293 101.388C36.268 99.9816 31.0599 96.9501 29.5414 95.2184C28.0229 93.4867 21.9463 86.1252 21.9463 86.1252L17.1724 76.9237H15L18.4712 84.5018C18.4712 84.5018 23.7879 91.9716 24.8721 93.0534C25.9577 94.1366 30.5132 99.1151 32.7916 100.74C35.0699 102.363 42.5564 105.936 42.5564 105.936L52.1042 108.535C55.9364 108.99 59.1761 109.041 61.5866 108.978C64.5673 108.901 67.2015 108.82 70.5811 108.033C73.2205 107.42 75.045 106.672 77.5994 105.611C82.5459 103.557 85.1565 102.408 88.1229 100.307C91.4855 97.925 97.2364 90.8885 97.2364 90.8885C97.2364 90.8885 100.599 86.3419 101.902 83.527C103.203 80.7121 105.049 76.3822 105.807 73.1354C106.567 69.8872 107 61.2273 107 59.279C107 57.3306 106.349 51.7009 105.59 49.1039C104.83 46.5057 102.443 40.8773 100.816 37.9541C99.1891 35.0309 92.8968 27.7791 91.0513 26.371C89.2071 24.9642 83.8905 21.0662 81.1778 19.8761C79.4527 19.1192 78.4299 18.4484 76.8526 17.8116C75.8507 17.4057 74.7939 17.0964 73.3657 16.7376C68.1249 15.4195 63.5942 15.1141 63.5942 15.1141C57.7871 14.724 53.1623 15.4234 50.7989 15.871C47.9267 16.4152 43.6956 16.932 39.0813 19.6594C36.1516 21.3912 31.1619 25.0725 31.1619 25.0725L25.5209 30.269L21.8325 34.8156L20.4226 36.8723L20.4252 36.871Z" fill="black"/>
</svg>
